PERFORMER "Baltazar Ortiz"
FILE "/home/baltazar/Music/Mixxx/Recordings/2015-11-14_02h03m57s.mp3" MP3 
  TRACK 01 AUDIO
    TITLE "Rey del Mambo"
    PERFORMER "Soniye & Tropkillaz"
    INDEX 01 00:00:01
  TRACK 02 AUDIO
    TITLE "Jack Ü feat Kiesza - Take U There (Pusher Flip)"
    PERFORMER "Pusher"
    INDEX 01 02:04:58
  TRACK 03 AUDIO
    TITLE "Let Me Clear My Throat (Whole-Z Remix)"
    PERFORMER "DJ Kool"
    INDEX 01 04:49:15
  TRACK 04 AUDIO
    TITLE "#SELFIE (Robot Dentist Remix)"
    PERFORMER "The Chainsmokers"
    INDEX 01 07:38:60
  TRACK 05 AUDIO
    TITLE "Fall Over (Djemba Djemba Remix)"
    PERFORMER "BANKS"
    INDEX 01 10:01:03
